<?xml version="1.0" encoding="UTF-8"?> <svg xmlns="http://www.w3.org/2000/svg" width="109" height="60" viewBox="0 0 109 60" fill="none"> <path fill-rule="evenodd" clip-rule="evenodd" d="M104.218 27.3167C104.592 27.5628 104.927 28.1253 104.927 29.1076C104.927 29.6122 104.782 29.9999 104.552 30.2939C104.324 30.5861 104.018 30.7771 103.709 30.9024C103.157 31.1268 102.572 31.1484 102.336 31.1505C102.314 31.1507 102.293 31.1622 102.285 31.1826C102.261 31.2395 102.239 31.3319 102.227 31.4566C102.203 31.7037 102.219 32.049 102.301 32.424C102.467 33.1761 102.892 34.0156 103.76 34.4333C104.208 34.649 104.508 34.691 104.712 34.6521C104.907 34.6147 105.036 34.4977 105.133 34.3335C105.233 34.1643 105.292 33.9571 105.351 33.7536L105.351 33.7522C105.38 33.6535 105.408 33.5538 105.442 33.4679C105.474 33.3839 105.516 33.2971 105.58 33.2338C105.635 33.1782 105.705 33.133 105.789 33.1244C105.876 33.1154 105.953 33.1493 106.013 33.2028C106.124 33.301 106.199 33.4826 106.251 33.7081C106.358 34.1718 106.391 34.9379 106.288 35.9994C106.18 37.1173 105.49 37.7139 104.813 38.0254C104.143 38.3344 103.474 38.3699 103.36 38.3699C103.31 38.3699 103.208 38.37 103.091 38.3876C102.972 38.4054 102.849 38.4397 102.753 38.5016C102.661 38.5606 102.594 38.6436 102.576 38.7709C102.556 38.9047 102.586 39.1051 102.733 39.3987C103.01 39.9534 103.403 40.288 103.898 40.7104C103.924 40.7326 103.95 40.7551 103.977 40.7778C104.508 41.2323 105.132 41.7869 105.79 42.7903C107.114 44.8113 107.038 47.1723 106.489 49.3009C106.344 49.8625 106.041 50.2327 105.661 50.4653C105.284 50.6954 104.84 50.7856 104.414 50.8075C103.988 50.8295 103.571 50.7833 103.243 50.7327C103.102 50.711 102.976 50.6883 102.873 50.6697C102.856 50.6666 102.839 50.6636 102.823 50.6607C102.705 50.6395 102.638 50.6289 102.611 50.6289C102.588 50.6289 102.546 50.6448 102.481 50.7198C102.42 50.7917 102.36 50.8914 102.295 51.0035C102.288 51.0156 102.281 51.0279 102.274 51.0403C102.218 51.1369 102.159 51.2408 102.097 51.3219C102.062 51.3683 102.022 51.4141 101.975 51.4491C101.928 51.4845 101.867 51.5143 101.794 51.5143C101.716 51.5143 101.651 51.4796 101.607 51.4219C101.569 51.371 101.552 51.3096 101.544 51.2565C101.528 51.1497 101.54 51.0161 101.557 50.8913C101.573 50.7763 101.596 50.6562 101.615 50.553L101.622 50.5194C101.644 50.4011 101.658 50.3233 101.658 50.2884L101.658 50.2823C101.658 50.2332 101.657 50.1488 101.708 50.0647C101.761 49.9778 101.853 49.9121 101.989 49.8561C102.256 49.7453 102.769 49.642 103.755 49.54C104.738 49.4383 105.239 49.1872 105.432 48.8721C105.619 48.5667 105.554 48.136 105.218 47.5652C105.142 47.4364 105.06 47.3568 104.978 47.3103C104.896 47.2641 104.805 47.2456 104.702 47.2521C104.491 47.2656 104.238 47.3857 103.958 47.5821C103.559 47.8615 103.152 48.2604 102.786 48.619C102.637 48.7651 102.495 48.9045 102.363 49.0264C101.977 49.3829 101.391 49.5463 100.838 49.6132C100.692 49.6309 100.546 49.642 100.405 49.648C99.9617 49.6666 99.6216 50.1255 99.8018 50.5306C99.8461 50.6302 99.8931 50.7349 99.9429 50.8453C100.318 51.6766 101.026 52.7626 101.765 53.7878C102.413 54.6876 103.079 55.5342 103.553 56.1097C103.648 56.2245 103.784 56.2968 103.932 56.3103C104.443 56.3571 105.26 56.4179 105.88 56.4179C106.391 56.4179 107.045 56.6691 107.511 56.9194C107.745 57.0449 107.944 57.1772 108.062 57.2886C108.092 57.3169 108.119 57.3465 108.141 57.3767C108.161 57.4051 108.184 57.4437 108.191 57.4892C108.2 57.5418 108.189 57.6025 108.142 57.6494C108.102 57.6891 108.052 57.7038 108.014 57.7101C107.785 57.7483 107.423 57.7099 107.102 57.6592C106.774 57.6074 106.463 57.5384 106.324 57.5035C106.286 57.494 106.274 57.5013 106.27 57.504L106.27 57.5042C106.258 57.5115 106.24 57.5306 106.213 57.5807C106.196 57.6129 106.181 57.6459 106.163 57.685C106.152 57.7091 106.14 57.7354 106.125 57.7652C106.091 57.8376 106.048 57.9193 105.989 57.998C105.959 58.0379 105.918 58.062 105.885 58.0771C105.85 58.0932 105.809 58.1054 105.768 58.1152C105.684 58.1347 105.579 58.1479 105.462 58.1568C105.225 58.1746 104.919 58.1762 104.59 58.1682C103.931 58.1522 103.168 58.0975 102.667 58.0519C102.627 58.0482 102.59 58.0269 102.567 57.9936C102.113 57.3354 101.095 55.8543 100.659 55.1995C100.531 55.0074 100.221 54.6678 99.8099 54.2392C99.5912 54.0114 99.3485 53.7633 99.0943 53.5034C98.8722 53.2764 98.6413 53.0404 98.4098 52.8008C97.9157 52.2897 97.4237 51.7678 97.0292 51.3047C96.6395 50.8472 96.3296 50.43 96.2178 50.1319C95.8128 49.0519 95.2719 47.9693 94.4564 46.5421C94.0722 45.8697 93.7184 45.094 93.4178 44.4352C93.3958 44.3868 93.374 44.3391 93.3525 44.2921C93.1948 43.9468 93.0536 43.6414 92.931 43.4056C92.8697 43.2877 92.8143 43.1896 92.7649 43.114C92.7251 43.0528 92.693 43.0123 92.669 42.988C92.6599 42.9788 92.6402 42.9663 92.6274 42.9639C92.6087 42.9603 92.5816 42.9587 92.5449 42.9613C92.4711 42.9665 92.3741 42.9874 92.2582 43.0236C92.0273 43.0959 91.7437 43.2217 91.4623 43.3687C91.1815 43.5154 90.9079 43.6805 90.6976 43.8287C90.5923 43.9029 90.5051 43.9713 90.4413 44.0296C90.3724 44.0928 90.3469 44.1301 90.3424 44.1414C90.3422 44.1419 90.3405 44.1467 90.3384 44.1576C90.3362 44.1689 90.3341 44.184 90.3322 44.2034C90.3283 44.2423 90.3261 44.2933 90.3256 44.3561C90.3247 44.4816 90.3311 44.6468 90.3443 44.8425C90.3707 45.2336 90.4235 45.7391 90.4956 46.2777C90.6403 47.3583 90.8602 48.555 91.0936 49.2218C91.2083 49.5496 91.3372 49.731 91.4597 49.8267C91.5773 49.9187 91.7007 49.9409 91.8326 49.9235C91.9702 49.9054 92.1147 49.8443 92.2627 49.7682C92.3112 49.7433 92.3624 49.7154 92.4137 49.6874C92.5076 49.6362 92.6021 49.5846 92.6821 49.5503C92.9865 49.4198 93.3299 49.5564 93.5959 49.7109C93.8076 49.8338 94.0068 49.9908 94.1446 50.0993C94.1845 50.1307 94.2193 50.1581 94.2477 50.1795C94.3508 50.2567 94.5375 50.3062 94.8168 50.3315C95.0903 50.3564 95.4239 50.3565 95.8005 50.3565C95.9045 50.3565 95.9981 50.3714 96.0723 50.4108C96.1532 50.4538 96.2074 50.5252 96.2188 50.6163C96.229 50.6979 96.2025 50.7772 96.1678 50.8433C96.132 50.9115 96.0801 50.9799 96.0195 51.0451C95.7813 51.3017 95.3473 51.5742 94.9395 51.6483C94.6208 51.7063 94.0651 51.6932 93.5152 51.657C93.1084 51.6303 92.695 51.5901 92.3636 51.5526C92.283 51.5434 92.2144 51.607 92.1852 51.6826C92.1594 51.7494 92.1136 51.8126 92.0412 51.8577C91.97 51.902 91.8826 51.923 91.7823 51.923C91.5871 51.923 91.3713 51.8436 91.1914 51.756C91.0997 51.7113 91.0127 51.6622 90.9367 51.6152C90.8356 51.5527 90.7205 51.5143 90.6017 51.5143H90.0797C89.9405 51.5143 89.8178 51.4842 89.7139 51.4125C89.611 51.3415 89.5399 51.2388 89.4868 51.118C89.3841 50.8847 89.3308 50.5393 89.264 50.1048C89.2005 49.6922 89.0763 49.248 88.9239 48.7031L88.9014 48.6224C88.7394 48.0429 88.551 47.3578 88.3797 46.5012C88.297 46.0879 88.1691 45.8448 88.0239 45.7136C87.8855 45.5885 87.714 45.5499 87.4978 45.5872C87.2761 45.6254 87.0168 45.7427 86.7263 45.9203C86.4375 46.0969 86.1275 46.327 85.8053 46.5814C85.19 47.0672 84.8784 47.7337 84.7211 48.3878C84.5635 49.0429 84.5631 49.6751 84.5631 50.0841C84.5631 50.453 84.6989 50.7152 84.8916 51.0253C84.9166 51.0654 84.9425 51.1064 84.9691 51.1484C85.1475 51.4302 85.356 51.7596 85.5096 52.2204C85.6029 52.5002 85.6572 53.0569 85.6196 53.7279C85.5818 54.4037 85.4499 55.2113 85.1591 55.997C84.5761 57.572 83.3468 59.0697 80.9615 59.21C78.6427 59.3464 77.5897 59.179 76.8574 58.8128C76.5066 58.6374 76.2345 58.4187 75.9413 58.1829L75.9071 58.1554C75.5998 57.9085 75.2577 57.6375 74.7569 57.3537C73.2405 56.4944 72.0866 56.4783 70.9225 56.4621C70.5444 56.4569 70.1654 56.4516 69.7724 56.4174C68.959 56.3467 67.8137 55.8743 66.5702 55.21C65.3209 54.5426 63.954 53.671 62.691 52.7836C62.3588 52.5501 62.0567 52.336 61.7804 52.1402C61.0051 51.5907 60.4326 51.1848 59.9654 50.8983C59.3345 50.5114 58.9179 50.3565 58.4787 50.3565C58.2904 50.3565 58.1313 50.4409 57.9464 50.6228C57.7958 50.7709 57.6415 50.9698 57.4497 51.217C57.3998 51.2813 57.3474 51.3489 57.2918 51.4196C56.7588 52.0988 55.9818 53.0138 54.5341 53.9445C53.0942 54.8701 52.2405 55.2044 51.2172 55.3356C50.7109 55.4005 50.1652 55.4155 49.493 55.4314L49.4029 55.4335C48.7476 55.449 47.9674 55.4674 46.9778 55.5323C44.9108 55.6678 43.7551 56.006 43.0614 56.3445C42.7155 56.5134 42.4821 56.6835 42.3063 56.8317C42.2299 56.8961 42.1644 56.9563 42.1033 57.0125C42.0933 57.0217 42.0835 57.0307 42.0738 57.0396C42.0056 57.1021 41.9393 57.1618 41.872 57.2098C41.7734 57.2802 41.6823 57.3911 41.5893 57.5317C41.5297 57.6217 41.4746 57.7153 41.4174 57.8125C41.3838 57.8695 41.3495 57.9277 41.3131 57.9873C41.2185 58.1421 41.1134 58.299 40.9879 58.4221C40.8609 58.5468 40.7064 58.6432 40.5139 58.6646C40.3496 58.6828 40.1261 58.6781 39.8808 58.6728L39.8712 58.6726C39.6241 58.6673 39.3466 58.6614 39.0574 58.6738C38.4686 58.699 37.8525 58.7999 37.3734 59.1193C37.2207 59.2211 37.0889 59.3158 36.9636 59.4059C36.8773 59.4679 36.794 59.5278 36.7089 59.5864C36.5083 59.7245 36.3131 59.8436 36.0997 59.9178C35.6607 60.0705 35.1787 60.0222 34.447 59.6738C33.7025 59.3192 33.2218 58.7687 32.9624 58.2589C32.833 58.0045 32.757 57.757 32.7325 57.5457C32.7089 57.3425 32.7297 57.1426 32.8327 57.0139C32.9362 56.8846 33.0939 56.8407 33.2538 56.829C33.4146 56.8173 33.6078 56.8362 33.8155 56.8616C33.8734 56.8687 33.9329 56.8764 33.994 56.8842C34.3799 56.9339 34.8284 56.9916 35.3148 56.963C35.861 56.9309 36.2124 56.7566 36.619 56.4912C36.7142 56.4289 36.813 56.3613 36.9181 56.2893C37.2635 56.0528 37.677 55.7696 38.2585 55.4788C39.4548 54.8807 41.9366 54.1947 43.0719 53.9144C43.0996 53.9075 43.1245 53.8994 43.1509 53.8886C44.727 53.2389 48.5693 51.6196 51.2542 49.9013L51.2551 49.9007L51.256 49.9001C52.0275 49.4236 53.2152 48.6817 54.2712 48.0046C54.7992 47.666 55.2937 47.344 55.6865 47.0796C56.0828 46.8129 56.3669 46.6105 56.4812 46.5089C57.0952 45.9632 57.7422 45.4529 58.683 45.4529C58.9293 45.4529 59.2033 45.528 59.4755 45.6347C59.7495 45.7421 60.032 45.8858 60.2979 46.0316C60.465 46.1232 60.6291 46.2177 60.7805 46.3049C60.8684 46.3556 60.952 46.4037 61.0294 46.4474C61.2479 46.5707 61.4121 46.6553 61.5128 46.6841C61.6193 46.7145 61.7292 46.7578 61.8477 46.8044C61.8707 46.8134 61.8939 46.8226 61.9175 46.8318C62.0657 46.8896 62.2378 46.9538 62.4574 47.016C62.8962 47.1402 63.532 47.2581 64.5446 47.2918C64.9008 47.3037 65.2222 47.3114 65.5226 47.3187C66.941 47.3527 67.8892 47.3755 69.8117 47.7713C71.2242 48.0621 73.0568 48.8381 74.3309 49.4458C74.7148 49.6289 75.1713 49.3539 75.2263 48.9321C75.2429 48.8046 75.2633 48.6752 75.2879 48.5466C75.397 47.9763 75.5962 47.3867 75.9579 47.0552C76.1723 46.8586 76.4328 46.687 76.6943 46.5248C76.7625 46.4825 76.8306 46.4409 76.8982 46.3996C77.0934 46.2804 77.2844 46.1638 77.4615 46.0395C77.94 45.7037 78.2591 45.3508 78.2295 44.848C78.2031 44.398 78.1145 44.1481 78.0303 43.9106C78.0103 43.8543 77.9906 43.7986 77.972 43.7411C77.8702 43.4266 77.8193 43.0958 77.9598 42.4282C78.0996 41.7644 78.3115 41.4731 78.4541 41.2771L78.4597 41.2694C78.5313 41.171 78.5621 41.1228 78.5724 41.0702C78.5816 41.0229 78.5768 40.9515 78.5135 40.809C78.461 40.691 78.3493 40.5349 78.2023 40.3296C78.1787 40.2968 78.1543 40.2626 78.129 40.2272C77.9517 39.9783 77.7462 39.6793 77.5793 39.3411C77.2438 38.6613 77.06 37.8122 77.5645 36.8752C78.0799 35.9181 79.0377 35.7473 79.9469 35.7906C80.3869 35.8116 80.8276 35.8829 81.2168 35.946L81.2594 35.9529C81.6666 36.0188 82.0021 36.0704 82.2385 36.0547C82.7326 36.0217 83.1489 35.9075 83.5229 35.6449C83.8984 35.3813 84.2431 34.9596 84.5775 34.2908C84.884 33.6778 85.5408 33.4783 86.1848 33.4579C86.8335 33.4374 87.5148 33.5952 87.9454 33.7465C88.0242 33.7741 88.0598 33.8654 88.0205 33.9391C87.9361 34.0973 87.818 34.3911 87.7479 34.7443C87.7122 34.9241 87.9227 34.9529 88.0059 34.7895C88.1477 34.5113 88.3489 34.2409 88.639 34.0361C89.1824 33.6526 89.6262 33.487 89.9895 33.3515C90.0241 33.3385 90.058 33.3259 90.0911 33.3134C90.4686 33.1708 90.7431 33.0462 90.9911 32.7052C91.2401 32.3628 91.2892 31.9718 91.3322 31.6276L91.3329 31.622C91.3532 31.4594 91.374 31.2933 91.4247 31.1647C91.4514 31.0969 91.4893 31.0311 91.5468 30.9788C91.6059 30.9249 91.6785 30.8918 91.7631 30.8797C91.892 30.8613 92.0539 30.857 92.2203 30.8539C92.239 30.8535 92.2578 30.8532 92.2767 30.8528C92.4294 30.8501 92.588 30.8472 92.7431 30.8361C92.9177 30.8236 93.0807 30.8012 93.2178 30.7597C93.3556 30.7179 93.4551 30.6606 93.5165 30.5868C93.6672 30.406 93.7145 30.2871 93.7461 30.2078L93.7501 30.1978L93.7525 30.1918C93.7666 30.1562 93.7898 30.0976 93.8365 30.0556C93.8952 30.0028 93.9667 29.993 94.0298 29.993C94.0908 29.993 94.1489 30.0083 94.1992 30.0253C94.2364 30.0379 94.2769 30.0541 94.3155 30.0695C94.3279 30.0745 94.3402 30.0794 94.3521 30.0841C94.4561 30.125 94.5688 30.1639 94.703 30.1671C94.8339 30.1702 94.9468 30.0886 95.0291 29.9868C95.3721 29.5622 95.8787 29.0051 96.4418 28.5177C96.7693 28.2341 97.1185 27.972 97.4679 27.7731C97.8162 27.5749 98.1726 27.4351 98.513 27.4055C99.3607 27.3318 99.9281 27.7985 100.448 28.2844C100.501 28.3338 100.553 28.3833 100.605 28.4326C101.077 28.8787 101.53 29.3073 102.165 29.4515C102.511 29.5303 102.742 29.4754 102.901 29.3641C103.065 29.2499 103.175 29.0607 103.247 28.8288C103.373 28.4237 103.366 27.9443 103.362 27.6596C103.361 27.615 103.36 27.5752 103.36 27.5412C103.36 27.4487 103.392 27.3652 103.452 27.3008C103.511 27.2377 103.589 27.1998 103.672 27.1831C103.836 27.1499 104.034 27.1956 104.218 27.3167ZM96.3936 30.097C96.0065 30.0316 95.7658 29.5443 96.0423 29.2655C96.2241 29.0821 96.4185 28.8982 96.6201 28.7236C96.9391 28.4475 97.2735 28.1972 97.6027 28.0099C97.933 27.8219 98.2504 27.7018 98.5366 27.6769C99.2553 27.6144 99.7435 27.9989 100.262 28.4835C100.314 28.5322 100.367 28.582 100.42 28.6324C100.884 29.0726 101.392 29.5553 102.104 29.7172C102.506 29.8086 102.821 29.7529 103.057 29.5874C103.29 29.425 103.426 29.1715 103.507 28.9096C103.648 28.458 103.639 27.927 103.634 27.6481C103.633 27.6065 103.633 27.5705 103.633 27.5412C103.633 27.5144 103.641 27.4979 103.652 27.486C103.664 27.4727 103.687 27.4579 103.726 27.4501C103.804 27.4344 103.929 27.4526 104.069 27.5443C104.342 27.7238 104.654 28.183 104.654 29.1076C104.654 29.5564 104.527 29.8839 104.337 30.1262C104.146 30.3703 103.886 30.5369 103.607 30.65C103.046 30.8775 102.44 30.8783 102.271 30.8783C102.201 30.8783 102.147 30.9133 102.112 30.9506C102.077 30.9869 102.052 31.0326 102.033 31.0782C101.995 31.17 101.97 31.2921 101.956 31.4302C101.929 31.7088 101.948 32.0828 102.035 32.4825C102.211 33.2798 102.67 34.2111 103.642 34.6788C104.113 34.9058 104.477 34.9744 104.763 34.9197C105.057 34.8635 105.243 34.6825 105.367 34.4721C105.485 34.2726 105.553 34.0367 105.608 33.8434L105.613 33.8275C105.642 33.7261 105.668 33.6385 105.696 33.5659C105.725 33.4913 105.75 33.4483 105.772 33.4265C105.786 33.4122 105.798 33.4041 105.806 33.3998C105.807 33.3991 105.808 33.3984 105.809 33.3979C105.811 33.397 105.813 33.3964 105.814 33.3961C105.815 33.3958 105.815 33.3956 105.816 33.3955C105.816 33.3955 105.816 33.3955 105.816 33.3956C105.818 33.3962 105.823 33.3986 105.832 33.4064C105.875 33.4444 105.936 33.5522 105.986 33.7694C106.083 34.1911 106.119 34.9234 106.017 35.9731C105.921 36.9665 105.317 37.4936 104.699 37.778C104.076 38.065 103.451 38.0975 103.36 38.0975H103.36C103.307 38.0975 103.188 38.0975 103.051 38.1182C102.914 38.1387 102.748 38.181 102.606 38.2724C102.459 38.3666 102.338 38.5134 102.306 38.731C102.275 38.9419 102.33 39.2012 102.489 39.5206C102.792 40.1261 103.224 40.4942 103.711 40.9092C103.74 40.9342 103.77 40.9594 103.8 40.9849C104.324 41.4328 104.925 41.9678 105.562 42.9396C106.826 44.8687 106.765 47.1388 106.225 49.2328C106.098 49.7268 105.838 50.0377 105.519 50.2328C105.195 50.4305 104.801 50.5148 104.4 50.5355C104.001 50.5561 103.605 50.5129 103.284 50.4635C103.147 50.4423 103.025 50.4203 102.922 50.4017C102.905 50.3985 102.888 50.3955 102.872 50.3926C102.766 50.3737 102.669 50.3565 102.611 50.3565C102.464 50.3565 102.353 50.4513 102.275 50.5423C102.194 50.6364 102.122 50.7581 102.059 50.8674C102.052 50.8798 102.045 50.892 102.038 50.9041C101.98 51.0038 101.93 51.0912 101.88 51.1576C101.858 51.186 101.84 51.2065 101.824 51.2205C101.82 51.224 101.814 51.2218 101.814 51.2166C101.804 51.151 101.81 51.0505 101.827 50.9285C101.841 50.821 101.863 50.7081 101.883 50.6039L101.889 50.5704C101.909 50.4652 101.93 50.3557 101.93 50.2884C101.93 50.2342 101.933 50.2201 101.941 50.2056C101.95 50.1904 101.981 50.1539 102.093 50.1078C102.319 50.0143 102.794 49.9133 103.783 49.811C104.775 49.7084 105.398 49.4486 105.664 49.0146C105.937 48.5708 105.798 48.014 105.453 47.427C105.358 47.2663 105.244 47.148 105.111 47.0729C104.977 46.9975 104.833 46.9708 104.685 46.9803C104.396 46.9987 104.092 47.1553 103.801 47.359C103.383 47.6522 102.948 48.0788 102.577 48.4426C102.433 48.5837 102.298 48.7155 102.178 48.8262C101.856 49.1236 101.341 49.2779 100.805 49.3427C100.476 49.3826 100.148 49.3874 99.8702 49.3748C99.6507 49.3649 99.4671 49.2141 99.3903 49.0083C99.2892 48.7373 99.1607 48.4157 99.0152 48.0894C98.7844 47.5713 98.5067 47.0313 98.2241 46.6639L98.196 46.6274C97.8607 46.1919 97.4427 45.6488 97.1023 44.7736C96.752 43.8729 96.4816 42.6132 96.4816 40.7536C96.4816 37.7355 94.8923 36.5108 94.0233 36.2704C94.0114 36.2671 94.0002 36.2632 93.9888 36.2584C93.8678 36.2077 93.7486 36.1652 93.6316 36.1304C93.524 36.0984 93.4979 35.9404 93.5917 35.8787C93.6285 35.8546 93.664 35.8309 93.6986 35.8078C93.7772 35.7555 93.8514 35.706 93.9269 35.6597C94.1412 35.5286 94.3392 35.4414 94.5746 35.4414C94.7509 35.4414 94.9617 35.5359 95.1656 35.6735C95.2659 35.7412 95.3595 35.8159 95.44 35.887C95.5291 35.9656 95.5554 36.0915 95.5086 36.2008L95.5035 36.2127C95.4744 36.2804 95.4426 36.3544 95.4295 36.4186C95.4221 36.4545 95.4177 36.4995 95.4294 36.5462C95.4423 36.5973 95.4719 36.6405 95.5154 36.6716C95.5897 36.7248 95.6948 36.7354 95.8005 36.7354C95.9682 36.7354 96.1036 36.6816 96.2033 36.5774C96.2986 36.4777 96.3486 36.345 96.3766 36.2097C96.4208 35.9962 96.4177 35.7297 96.4149 35.481C96.4142 35.421 96.4135 35.3621 96.4135 35.3052C96.4135 35.1529 96.4655 34.956 96.5467 34.7455C96.5615 34.707 96.6178 34.7191 96.6178 34.7604C96.6178 34.8749 96.6243 34.9648 96.6381 35.0344C96.6514 35.1018 96.6746 35.167 96.7213 35.2151C96.7747 35.2698 96.8386 35.2826 96.8884 35.282C96.9195 35.2817 96.9581 35.2748 96.9777 35.2713C96.982 35.2705 96.9854 35.2699 96.9876 35.2696C96.9922 35.2689 96.996 35.2684 96.9991 35.268C97.0046 35.2675 97.01 35.2699 97.013 35.2746C97.0397 35.3162 97.0778 35.4323 97.0948 35.7218C97.1118 36.0118 97.1291 36.2365 97.1487 36.4014C97.1585 36.4838 97.1692 36.5536 97.1814 36.6103C97.1929 36.6644 97.2079 36.7168 97.2304 36.7581C97.2493 36.7928 97.3063 36.8746 97.4118 36.8588C97.4544 36.8525 97.4856 36.8311 97.5049 36.8143C97.5247 36.7971 97.5407 36.777 97.5534 36.7588C97.6008 36.6905 97.6487 36.5765 97.6988 36.4427C97.7476 36.3127 97.7728 36.1151 97.7858 35.8956C97.7904 35.8178 97.7936 35.7353 97.7955 35.6495C97.7962 35.6144 97.8424 35.5997 97.8641 35.6274C97.9761 35.7708 98.0986 35.8925 98.2124 35.9708C98.2688 36.0096 98.3293 36.0421 98.3901 36.0583C98.4501 36.0742 98.5296 36.0787 98.6003 36.0315C98.6511 35.9977 98.6735 35.9475 98.6832 35.9079C98.6927 35.8687 98.6928 35.828 98.6899 35.7916C98.6841 35.7183 98.6628 35.6309 98.6348 35.5397C98.5782 35.3555 98.484 35.124 98.3862 34.8943C98.3466 34.8013 98.3065 34.7089 98.2676 34.6192C98.2088 34.4838 98.1527 34.3544 98.1048 34.2381C98.0653 34.1422 98.0328 34.0588 98.0105 33.9921C97.9993 33.9588 97.9913 33.9314 97.9861 33.9097C97.9835 33.899 97.9819 33.8905 97.9809 33.8841C97.9799 33.8775 97.9799 33.8748 97.9799 33.875C97.9799 33.7823 98.028 33.6774 98.1059 33.5924C98.1697 33.5228 98.2365 33.4844 98.2856 33.4715C98.294 33.4692 98.3028 33.4719 98.3087 33.4783C98.3326 33.504 98.3628 33.5456 98.3983 33.603C98.4688 33.7167 98.547 33.8707 98.6236 34.0282C98.6495 34.0813 98.6752 34.1351 98.7003 34.1875C98.748 34.287 98.7932 34.3812 98.8314 34.4555C98.8603 34.5117 98.8888 34.5636 98.9142 34.6004C98.9256 34.6168 98.9438 34.6415 98.9679 34.6605C98.9796 34.6697 99.0048 34.6875 99.0412 34.6931C99.0866 34.7002 99.1328 34.6855 99.1659 34.6524C99.193 34.6253 99.2028 34.5935 99.2056 34.5845C99.2102 34.5699 99.2131 34.555 99.2151 34.5421C99.2193 34.5159 99.2219 34.4841 99.2234 34.4492C99.2264 34.3787 99.2255 34.2839 99.2195 34.171C99.2074 33.9447 99.1748 33.6386 99.1098 33.2962C98.9804 32.6147 98.7196 31.7729 98.2236 31.1352C97.7197 30.4873 97.02 30.2029 96.3936 30.097ZM98.2882 33.4593C98.2882 33.4593 98.2882 33.4593 98.2882 33.4593V33.4593ZM97.7886 34.9368C97.7889 34.9479 97.7911 34.9589 97.7952 34.9693C97.8634 35.1436 97.9654 35.3146 98.0787 35.4597C98.1796 35.5887 98.2826 35.6884 98.3668 35.7463C98.3852 35.759 98.4075 35.7432 98.4024 35.7215C98.3953 35.6917 98.386 35.6578 98.3743 35.6198C98.3224 35.4507 98.2335 35.231 98.1355 35.001C98.0977 34.9122 98.0583 34.8214 98.0196 34.7321C97.9598 34.5941 97.9015 34.4598 97.8529 34.3419C97.8126 34.2442 97.7775 34.1541 97.7522 34.0787C97.7503 34.0731 97.7414 34.0748 97.7419 34.0807C97.7609 34.3411 97.7784 34.6397 97.7886 34.9368ZM97.7432 33.674C97.7379 33.689 97.7095 33.6861 97.7081 33.6703C97.7074 33.6631 97.7012 33.6582 97.6939 33.6586L97.571 33.6643C97.4949 33.6679 97.4351 33.7306 97.4351 33.8067V34.556C97.4351 34.6776 97.4559 34.8012 97.4913 34.9223C97.5077 34.9782 97.5192 35.0356 97.5207 35.0938C97.5212 35.1109 97.5216 35.1278 97.5219 35.1448C97.5279 35.4108 97.5265 35.6655 97.5138 35.8794C97.5009 36.098 97.4767 36.2591 97.4437 36.3471C97.4407 36.3553 97.4376 36.3633 97.4347 36.3711C97.4317 36.379 97.4202 36.3776 97.4192 36.3692C97.4006 36.2127 97.3837 35.9947 97.3667 35.7058C97.3497 35.4164 97.3111 35.2346 97.2421 35.1273C97.2035 35.0671 97.1523 35.0254 97.0894 35.0064C97.0318 34.989 96.9784 34.9954 96.9461 35.0003C96.9425 35.0009 96.9391 35.0014 96.936 35.0019C96.9219 35.0042 96.9081 34.9957 96.9053 34.9816C96.8965 34.9369 96.8902 34.8671 96.8902 34.7604C96.8902 34.4145 96.9235 34.1702 96.963 34.0076C96.9828 33.9262 97.0037 33.8666 97.022 33.8256C97.0238 33.8217 97.0255 33.818 97.0272 33.8145C97.0521 33.7755 97.0444 33.7239 97.0086 33.6945L96.9622 33.6565C96.9054 33.6099 96.8224 33.6153 96.7893 33.6809C96.677 33.8578 96.5328 34.1088 96.4092 34.3743C96.2664 34.6809 96.1411 35.0278 96.1411 35.3052C96.1411 35.3713 96.1418 35.4366 96.1424 35.5006C96.145 35.7463 96.1474 35.9729 96.1098 36.1545C96.0868 36.266 96.0516 36.3418 96.0065 36.3891C95.9657 36.4317 95.9054 36.463 95.8005 36.463C95.747 36.463 95.7151 36.412 95.7358 36.3626C95.7427 36.3462 95.7504 36.3282 95.759 36.3081C95.7918 36.2316 95.8325 36.1362 95.8664 36.0264C95.906 35.8978 95.9368 35.7478 95.9368 35.5776C95.9368 35.377 95.9142 35.194 95.8939 35.0296L95.8923 35.0161C95.8662 34.8046 95.8463 34.6298 95.8694 34.4615C95.8917 34.2994 95.955 34.1388 96.1074 33.9647C96.2141 33.8427 96.3673 33.7275 96.5465 33.6056C96.5985 33.5702 96.6529 33.5341 96.7085 33.4973C96.8388 33.4108 96.9753 33.3203 97.1001 33.226C97.4556 32.9571 97.7864 32.6066 97.7059 32.0835C97.6363 31.6313 97.5114 31.274 97.2779 31.0309C97.0396 30.7826 96.7089 30.674 96.2773 30.674C95.4494 30.674 95.1401 30.6718 94.8295 30.5476C94.7674 30.5227 94.7943 30.4392 94.8606 30.4302C94.9117 30.4233 94.965 30.4123 95.0207 30.3964C95.2391 30.334 95.7633 30.2668 96.3482 30.3656C96.9307 30.4641 97.5591 30.7245 98.0086 31.3025C98.4661 31.8907 98.7161 32.6834 98.8421 33.347C98.8798 33.5455 98.9061 33.7309 98.9236 33.8938C98.9271 33.9268 98.8831 33.9389 98.8686 33.909C98.792 33.7515 98.7084 33.5863 98.6299 33.4595C98.591 33.3966 98.5499 33.3377 98.5083 33.2929C98.4875 33.2705 98.4632 33.2479 98.4354 33.23C98.4084 33.2127 98.3688 33.1939 98.3204 33.1939C98.1645 33.1939 98.0116 33.2921 97.9051 33.4084C97.838 33.4815 97.7789 33.5729 97.7432 33.674ZM94.2515 30.4006C94.2173 30.3486 94.1711 30.3033 94.1121 30.2834C94.0723 30.27 94.0471 30.2654 94.0298 30.2654C94.022 30.2654 94.015 30.2701 94.012 30.2773C94.0095 30.2831 94.0065 30.2902 94.003 30.2989L93.9998 30.3071C93.9631 30.399 93.9038 30.5476 93.7258 30.7612C93.617 30.8918 93.4611 30.9706 93.2967 31.0204C93.1315 31.0704 92.9455 31.0948 92.7625 31.1078C92.5997 31.1195 92.4335 31.1225 92.2817 31.1252C92.2627 31.1256 92.244 31.1259 92.2255 31.1263C92.0555 31.1295 91.911 31.1338 91.8016 31.1494C91.7669 31.1543 91.7459 31.1659 91.7303 31.1802C91.713 31.1959 91.695 31.2216 91.6781 31.2646C91.6422 31.3557 91.6245 31.4853 91.6025 31.6614L91.6003 31.6792C91.5584 32.0144 91.5021 32.4657 91.2114 32.8654C90.9146 33.2735 90.5762 33.4214 90.1874 33.5682C90.154 33.5809 90.1201 33.5935 90.0857 33.6064C89.7245 33.7412 89.3099 33.896 88.7961 34.2587C88.2633 34.6348 88.067 35.2854 87.9743 35.7491C87.9556 35.8426 87.9414 35.9263 87.9293 35.9983C87.9266 36.0146 87.9239 36.0302 87.9214 36.0452C87.9145 36.0853 87.9079 36.1223 87.9013 36.1533C87.8953 36.1815 87.8871 36.2153 87.8744 36.2434C87.8687 36.256 87.8557 36.2827 87.8296 36.3051C87.8151 36.3176 87.7936 36.3313 87.7651 36.3376C87.7354 36.3441 87.7067 36.3407 87.6825 36.3316C87.6401 36.3157 87.6166 36.2847 87.6077 36.2722C87.5963 36.2562 87.5877 36.2392 87.5813 36.2249C87.5568 36.1707 87.5296 36.0784 87.4963 35.9532C87.3803 35.5182 87.4054 35.0703 87.4807 34.6913C87.4893 34.6475 87.4987 34.6044 87.5087 34.5623C87.5872 34.2305 87.4241 33.8647 87.0885 33.804C86.8026 33.7523 86.493 33.7207 86.1935 33.7302C85.5832 33.7495 85.0595 33.9359 84.8212 34.4126C84.4745 35.1059 84.1041 35.5697 83.6794 35.8679C83.2531 36.1672 82.7841 36.2913 82.2566 36.3265C81.9821 36.3448 81.6111 36.2858 81.2159 36.2218L81.1781 36.2157C80.7855 36.1521 80.3582 36.0829 79.934 36.0627C79.0555 36.0209 78.2425 36.1906 77.8044 37.0043C77.3555 37.838 77.5121 38.5894 77.8236 39.2206C77.9803 39.5379 78.1749 39.8221 78.3509 40.0691C78.3748 40.1026 78.3986 40.1358 78.422 40.1685C78.5659 40.369 78.6976 40.5525 78.7624 40.6983C78.8353 40.8622 78.8646 40.9952 78.8397 41.1224C78.8163 41.2423 78.747 41.3376 78.6833 41.4251L78.671 41.442C78.5415 41.6199 78.3543 41.877 78.2264 42.4843C78.0945 43.1108 78.1457 43.3929 78.2312 43.6573C78.2477 43.7084 78.2661 43.7599 78.2852 43.8138C78.3708 44.0545 78.4726 44.3408 78.5015 44.832C78.54 45.4869 78.11 45.9172 77.618 46.2625C77.4331 46.3922 77.2313 46.5155 77.034 46.6359C76.9678 46.6763 76.9022 46.7164 76.8379 46.7563C76.5779 46.9176 76.3362 47.0779 76.142 47.256C75.8499 47.5237 75.6631 48.0352 75.5554 48.5978C75.4492 49.1526 75.4258 49.7247 75.4369 50.0798C75.4402 50.1844 75.3292 50.2535 75.2368 50.2044C74.1714 49.6376 71.5888 48.4153 69.7567 48.0381C67.8591 47.6474 66.9334 47.6252 65.5192 47.5911C65.2182 47.5839 64.895 47.5761 64.5356 47.5641C63.505 47.5298 62.8469 47.4093 62.3832 47.2781C62.1516 47.2126 61.9704 47.1448 61.8185 47.0856C61.7928 47.0756 61.7682 47.0659 61.7445 47.0566C61.6259 47.01 61.5307 46.9725 61.4379 46.946C61.3002 46.9067 61.1068 46.8039 60.8955 46.6846C60.8137 46.6385 60.7283 46.5893 60.6397 46.5382C60.4906 46.4523 60.3323 46.3611 60.1669 46.2704C59.905 46.1268 59.6342 45.9895 59.3761 45.8883C59.1162 45.7865 58.8794 45.7253 58.683 45.7253C57.8531 45.7253 57.2742 46.1686 56.6622 46.7125C56.5314 46.8288 56.2304 47.0419 55.8386 47.3056C55.4434 47.5716 54.947 47.8949 54.4182 48.2339C53.361 48.9118 52.1724 49.6543 51.4001 50.1313C48.6641 51.8821 44.7491 53.5251 43.2068 54.1602C43.2005 54.1628 43.194 54.1649 43.1873 54.1665C42.073 54.4394 39.5633 55.131 38.3804 55.7225C37.8173 56.004 37.4239 56.2733 37.0804 56.5085C36.9725 56.5824 36.8696 56.6528 36.7679 56.7193C36.3401 56.9986 35.9424 57.199 35.3308 57.235C34.8168 57.2652 34.3412 57.2038 33.9561 57.1541C33.8959 57.1463 33.838 57.1388 33.7824 57.132C33.5729 57.1064 33.4044 57.0912 33.2736 57.1007C33.1418 57.1104 33.0783 57.1431 33.0455 57.1841C33.0123 57.2256 32.982 57.3321 33.0031 57.5143C33.0233 57.6882 33.0878 57.9046 33.2052 58.1354C33.4397 58.5962 33.8783 59.1012 34.5641 59.4278C35.2626 59.7604 35.666 59.7802 36.0102 59.6605C36.1884 59.5985 36.3593 59.4963 36.5545 59.3619C36.6287 59.3109 36.7092 59.2531 36.795 59.1915C36.9261 59.0974 37.0696 58.9944 37.2223 58.8926C37.7648 58.5309 38.4427 58.4275 39.0457 58.4016C39.3437 58.3888 39.6286 58.3949 39.8743 58.4002L39.8867 58.4005C40.1394 58.4059 40.3416 58.4096 40.4838 58.3938C40.5977 58.3812 40.6986 58.3243 40.7972 58.2276C40.8973 58.1294 40.988 57.9968 41.0807 57.8452C41.112 57.794 41.1441 57.7395 41.1768 57.684C41.237 57.5819 41.2992 57.4764 41.3621 57.3814C41.4607 57.2325 41.5739 57.088 41.7137 56.9881C41.7656 56.9511 41.8205 56.9022 41.8897 56.8388C41.899 56.8302 41.9086 56.8215 41.9184 56.8124C41.9794 56.7563 42.0495 56.6919 42.1307 56.6234C42.3209 56.4631 42.5728 56.2799 42.942 56.0997C43.6785 55.7402 44.8725 55.3973 46.9599 55.2604C47.9554 55.1951 48.7404 55.1767 49.3958 55.1612L49.4866 55.1591C50.1616 55.1431 50.6928 55.1282 51.1826 55.0654C52.1514 54.9412 52.9663 54.6285 54.3868 53.7153C55.7996 52.8071 56.5549 51.9174 57.0775 51.2514C57.1294 51.1854 57.1794 51.1209 57.2279 51.0584C57.4213 50.809 57.5905 50.5908 57.7553 50.4286C57.9662 50.2211 58.1902 50.0841 58.4787 50.0841C58.9929 50.0841 59.4617 50.2698 60.1078 50.6661C60.5833 50.9577 61.1668 51.3713 61.9459 51.9235C62.2208 52.1184 62.5201 52.3305 62.8477 52.5607C64.1046 53.4439 65.4619 54.3091 66.6985 54.9697C67.9409 55.6334 69.043 56.0805 69.796 56.146C70.1606 56.1777 70.5227 56.1826 70.8911 56.1875C72.0684 56.2033 73.3087 56.2199 74.8912 57.1167C75.4119 57.4118 75.7679 57.6941 76.0778 57.9431L76.1044 57.9645C76.4034 58.2048 76.655 58.407 76.9792 58.5691C77.643 58.901 78.6332 59.0741 80.9455 58.9381C83.1914 58.8059 84.3458 57.4092 84.9036 55.9024C85.1832 55.1472 85.311 54.3671 85.3476 53.7127C85.3845 53.0535 85.3282 52.5376 85.2512 52.3066C85.1087 51.8792 84.9182 51.5778 84.7401 51.2961C84.7131 51.2534 84.6865 51.2112 84.6603 51.1691C84.4614 50.8492 84.2907 50.5324 84.2907 50.0841V50.081C84.2907 49.6725 84.2907 49.0123 84.4562 48.3241C84.6224 47.633 84.9578 46.9034 85.6365 46.3676C85.9613 46.1112 86.2813 45.8731 86.5842 45.6879C86.8854 45.5037 87.1794 45.3656 87.4515 45.3187C87.729 45.2708 87.9917 45.3173 88.2066 45.5115C88.4147 45.6995 88.5592 46.0098 88.6468 46.4478C88.816 47.2939 89.0022 47.9709 89.1637 48.5491L89.1885 48.6375C89.3388 49.175 89.4672 49.6341 89.5332 50.0634C89.6026 50.5142 89.6515 50.8159 89.7361 51.0083C89.7766 51.1003 89.8205 51.1551 89.8687 51.1883C89.9159 51.2209 89.9804 51.2419 90.0797 51.2419H90.8288C90.8583 51.2419 90.887 51.2515 90.9106 51.2691C90.9952 51.3326 91.1445 51.4301 91.3107 51.511C91.4805 51.5937 91.6506 51.6505 91.7823 51.6505C91.8454 51.6505 91.8795 51.6374 91.8971 51.6264C91.9136 51.6162 91.924 51.6028 91.9311 51.5844C91.9481 51.5403 91.943 51.4736 91.9255 51.4212C91.8937 51.3259 91.9725 51.2302 92.0722 51.243C92.4218 51.2881 92.9842 51.3491 93.533 51.3852C94.0876 51.4217 94.6102 51.4313 94.8908 51.3803C95.2322 51.3182 95.6155 51.0799 95.8199 50.8598C95.87 50.8058 95.9054 50.7571 95.9265 50.7168C95.9419 50.6876 95.9467 50.6686 95.948 50.6585C95.9484 50.6556 95.947 50.6527 95.9444 50.6513C95.9264 50.6418 95.8839 50.6289 95.8005 50.6289H95.7954C95.4248 50.6289 95.0793 50.629 94.7922 50.6028C94.5096 50.5772 94.2537 50.5244 94.0843 50.3974C94.0488 50.3708 94.0087 50.3392 93.9647 50.3046C93.8274 50.1966 93.652 50.0585 93.4591 49.9465C93.1973 49.7945 92.9618 49.7268 92.7894 49.8007C92.7196 49.8306 92.6468 49.8705 92.5631 49.9164C92.5096 49.9457 92.4517 49.9774 92.3873 50.0105C92.2331 50.0898 92.0542 50.1691 91.8682 50.1936C91.6766 50.2188 91.4765 50.1857 91.2919 50.0414C91.1122 49.9009 90.9601 49.6651 90.8365 49.3118C90.5931 48.6165 90.3704 47.3955 90.2256 46.3138C90.153 45.7711 90.0994 45.2594 90.0725 44.8608C90.0591 44.6618 90.0522 44.4891 90.0532 44.3541C90.0537 44.2868 90.0561 44.2269 90.0611 44.1768C90.0657 44.1298 90.0734 44.0803 90.0894 44.0402C90.119 43.9664 90.1871 43.893 90.2573 43.8287C90.3327 43.7597 90.4301 43.6839 90.5408 43.6059C90.7625 43.4497 91.0466 43.2785 91.3361 43.1273C91.6251 42.9763 91.9246 42.8425 92.1769 42.7636C92.3025 42.7243 92.4221 42.6968 92.5257 42.6895C92.6231 42.6827 92.7367 42.6912 92.8209 42.7586C92.8811 42.8067 92.9386 42.8814 92.9932 42.9652C93.0494 43.0515 93.1095 43.1583 93.1727 43.2799C93.2991 43.5229 93.4431 43.8347 93.6003 44.1789C93.6216 44.2254 93.643 44.2725 93.6647 44.3201C93.9664 44.9812 94.3152 45.746 94.6929 46.4069C95.5119 47.8401 96.0607 48.9369 96.4729 50.0363C96.5655 50.2831 96.843 50.6661 97.2365 51.128C97.6252 51.5843 98.1122 52.1011 98.6057 52.6115C98.8339 52.8476 99.0646 53.0834 99.287 53.3109C99.5431 53.5727 99.7883 53.8234 100.006 54.0506C100.412 54.4733 100.741 54.8318 100.886 55.0484C101.268 55.6218 102.099 56.8333 102.603 57.5657C102.699 57.7056 102.853 57.7952 103.022 57.8087C103.491 57.8462 104.077 57.8832 104.596 57.8958C104.922 57.9038 105.218 57.9019 105.441 57.8851C105.553 57.8767 105.642 57.8648 105.706 57.8499C105.737 57.8425 105.759 57.8352 105.772 57.8292C105.775 57.8276 105.778 57.825 105.78 57.8219C105.819 57.7678 105.85 57.7091 105.88 57.648C105.889 57.6281 105.899 57.6063 105.909 57.584C105.93 57.5386 105.952 57.4908 105.973 57.4515C106.006 57.391 106.051 57.3207 106.123 57.2748C106.202 57.2241 106.293 57.215 106.39 57.2393C106.523 57.2725 106.825 57.3397 107.144 57.3901C107.196 57.3982 107.247 57.4057 107.297 57.4126C107.485 57.4382 107.549 57.2492 107.382 57.1594C106.929 56.9159 106.323 56.6903 105.88 56.6903C105.11 56.6903 104.051 56.5989 103.618 56.5534C103.583 56.5497 103.551 56.5325 103.528 56.5055C103.05 55.9357 102.285 54.9761 101.544 53.947C100.804 52.9199 100.082 51.8152 99.6946 50.9574C99.4439 50.4022 99.27 49.9968 99.1333 49.678C99.0075 49.3845 98.9131 49.1644 98.8191 48.9681C98.629 48.5715 98.4479 48.2904 98.0079 47.715C97.8944 47.5666 97.7704 47.4146 97.6407 47.2557C97.2771 46.8102 96.8692 46.3103 96.5232 45.6802C96.0495 44.8175 95.6864 43.7059 95.6643 42.1176C95.6427 40.5542 95.4893 39.1628 95.0878 38.1832C94.8877 37.695 94.6297 37.3183 94.3043 37.0717C93.9816 36.8271 93.5832 36.703 93.0851 36.7351C92.0718 36.8005 91.3948 37.2551 90.967 37.8846C90.5356 38.5196 90.3521 39.3416 90.3521 40.1407C90.3521 40.2946 90.3402 40.4163 90.3089 40.4947C90.2951 40.5294 90.2613 40.5973 90.1834 40.6196C90.0967 40.6445 90.0318 40.5936 90.0046 40.5665C89.9737 40.5355 89.9492 40.4953 89.9296 40.4563C89.909 40.4154 89.8896 40.3672 89.8714 40.3138C89.8351 40.2069 89.8016 40.0721 89.7752 39.9187C89.6706 39.3119 89.6663 38.3545 90.0985 37.6198C90.3362 37.2157 90.8136 36.6677 91.4817 36.3248C91.6482 36.2394 91.6576 35.9396 91.4902 35.8562C91.4761 35.8492 91.4624 35.8424 91.449 35.8357C91.3901 35.8062 91.3347 35.7693 91.2973 35.7202C91.255 35.6647 91.236 35.5924 91.2624 35.5182C91.2849 35.4548 91.3334 35.4113 91.3753 35.3825C91.4196 35.3521 91.4732 35.3267 91.5302 35.3054C91.7552 35.221 92.1135 35.169 92.4634 35.169C92.7875 35.169 93.0165 35.1039 93.1595 35.0181C93.3026 34.9323 93.3487 34.8345 93.3487 34.7604C93.3487 34.7274 93.3371 34.6655 93.3099 34.576C93.2839 34.4902 93.2472 34.3904 93.2054 34.2869C93.1219 34.0799 93.0214 33.8654 92.9545 33.7316C92.9476 33.7178 92.9431 33.7029 92.9412 33.6876C92.8365 32.8506 92.3717 32.1582 92.1583 31.9234C92.1355 31.8984 92.1228 31.8657 92.1228 31.8318C92.1228 31.798 92.128 31.7569 92.1485 31.7181C92.1712 31.6751 92.2093 31.6422 92.2581 31.6276C92.3023 31.6145 92.3441 31.6197 92.3753 31.6278C92.4072 31.6361 92.4378 31.6501 92.4655 31.6656C92.5723 31.7258 92.7008 31.8469 92.8269 31.9984C93.0822 32.3052 93.3669 32.7841 93.4817 33.3006C93.614 33.896 93.8076 34.1883 93.9986 34.3499C94.161 34.4873 94.3288 34.5399 94.5067 34.5956C94.5432 34.607 94.5802 34.6186 94.6177 34.6311C94.7631 34.6796 94.966 34.7304 95.1679 34.7756C95.383 34.8238 95.5695 34.6428 95.5996 34.4244C95.6292 34.2088 95.7155 33.9989 95.9024 33.7853C96.034 33.6349 96.2128 33.5032 96.3933 33.3803C96.4511 33.341 96.5088 33.3027 96.5661 33.2647C96.6932 33.1805 96.8179 33.0978 96.9358 33.0087C97.2783 32.7497 97.4924 32.4873 97.4367 32.1249C97.37 31.6918 97.2566 31.4021 97.0814 31.2196C96.9111 31.0422 96.6629 30.9464 96.2773 30.9464L96.2416 30.9464C95.4596 30.9465 95.0934 30.9465 94.7284 30.8005C94.4998 30.709 94.3421 30.5379 94.2515 30.4006ZM95.6643 35.5673C95.6633 35.3176 95.4666 35.1189 95.2225 35.0665C94.9789 35.0142 94.7154 34.9508 94.5316 34.8896C94.502 34.8797 94.4704 34.8699 94.4371 34.8596C94.2578 34.8042 94.0309 34.7341 93.8226 34.5579C93.571 34.3449 93.3559 33.9902 93.2158 33.3597C93.1488 33.0584 93.0157 32.767 92.8663 32.5224C93.0073 32.8128 93.133 33.159 93.1947 33.5371C93.2047 33.5988 93.2228 33.659 93.2498 33.7154C93.3135 33.8481 93.3909 34.0184 93.458 34.185C93.5014 34.2926 93.5413 34.4005 93.5706 34.4969C93.5988 34.5896 93.6212 34.6843 93.6212 34.7604C93.6212 34.9586 93.4971 35.1333 93.2996 35.2517C93.1021 35.3703 92.8203 35.4414 92.4634 35.4414C92.1322 35.4414 91.8094 35.4916 91.6258 35.5604C91.6045 35.5684 91.5863 35.5762 91.5709 35.5837C91.5674 35.5854 91.5673 35.5903 91.5708 35.592C91.7762 35.6947 92.0393 35.8246 92.3145 35.8971C92.5906 35.9699 92.858 35.9793 93.0826 35.8649C93.2097 35.8002 93.327 35.7268 93.4421 35.6511C93.4754 35.6292 93.5089 35.6069 93.5425 35.5845C93.6231 35.5307 93.7045 35.4765 93.7847 35.4274C94.0156 35.2861 94.2653 35.169 94.5746 35.169C94.8343 35.169 95.1015 35.3015 95.318 35.4477C95.4015 35.504 95.4805 35.5645 95.5524 35.6245C95.5967 35.6614 95.6643 35.6352 95.6643 35.5776C95.6643 35.5742 95.6643 35.5707 95.6643 35.5673ZM97.0054 35.2647C97.0054 35.2647 97.0055 35.2648 97.0055 35.2649C97.005 35.2645 97.0049 35.2643 97.0054 35.2647ZM98.9373 48.5996C98.7715 48.2932 98.5768 48.0105 98.2243 47.5496C98.1018 47.3894 97.9721 47.2303 97.8389 47.0671C97.4793 46.6265 97.095 46.1555 96.762 45.5491C96.3102 44.7262 95.9582 43.6584 95.9367 42.1139C95.915 40.5445 95.7619 39.1095 95.3399 38.0799C95.1283 37.5636 94.8454 37.14 94.4688 36.8546C94.0896 36.5671 93.6251 36.4273 93.0676 36.4633C91.9696 36.5341 91.2163 37.033 90.7417 37.7315C90.3216 38.3498 90.1242 39.1172 90.0865 39.8688C90.0851 39.8959 90.0483 39.8992 90.0436 39.8724C89.9439 39.2941 89.9482 38.4126 90.3333 37.758C90.5496 37.3902 90.9916 36.8825 91.6061 36.5671C92.2153 36.2545 92.9957 36.1291 93.908 36.5201C93.9144 36.5228 93.921 36.5251 93.9278 36.5268C94.6544 36.7137 96.2092 37.8108 96.2092 40.7536C96.2092 42.6399 96.4836 43.9342 96.8484 44.8723C97.2031 45.7843 97.6409 46.353 97.9785 46.7914L98.0082 46.83C98.2704 47.1708 98.5375 47.6865 98.7664 48.2002C98.8266 48.3353 98.8838 48.4695 98.9373 48.5996ZM90.0538 40.3982C90.0538 40.398 90.0542 40.397 90.0552 40.3954C90.0543 40.3976 90.0538 40.3984 90.0538 40.3982ZM95.2627 31.6706C95.2333 31.5824 95.2989 31.4913 95.3919 31.4913C95.5006 31.4913 95.6677 31.502 95.8182 31.5354C95.893 31.552 95.9706 31.5757 96.0362 31.6107C96.0992 31.6441 96.1723 31.6992 96.2022 31.7887C96.2359 31.8899 96.2089 31.9841 96.1458 32.0515C96.0898 32.1114 96.0121 32.1441 95.9418 32.1603C95.8694 32.1771 95.7895 32.1799 95.7149 32.1672C95.6421 32.1549 95.5608 32.1253 95.4999 32.0643C95.37 31.9344 95.2887 31.7487 95.2627 31.6706ZM95.7365 31.7966C95.6899 31.7871 95.6589 31.8381 95.6925 31.8717C95.6997 31.8789 95.7206 31.8919 95.7606 31.8986C95.7988 31.9051 95.8423 31.9037 95.8806 31.8949C95.8901 31.8927 95.8985 31.8902 95.9059 31.8877C95.9237 31.8814 95.9251 31.8601 95.9083 31.8512C95.8731 31.8325 95.8221 31.8153 95.7591 31.8013C95.7516 31.7997 95.7441 31.7981 95.7365 31.7966Z" fill="white"></path> <path d="M28.7166 28.9033L31.7132 47.0875L34.8461 46.4745L32.7348 34.2836L41.1799 45.1124L45.9473 44.0908L44.2446 25.8385L40.8394 26.2471L42.3377 38.3018L34.2331 27.6774L28.7166 28.9033Z" fill="#E2027E"></path> <path fill-rule="evenodd" clip-rule="evenodd" d="M44.3673 25.6866L46.0942 44.1986L41.125 45.2634L32.9618 34.7962L35.003 46.5826L31.6017 47.2481L28.5612 28.7982L34.2886 27.5255L42.1404 37.8186L40.6873 26.1282L44.3673 25.6866ZM40.9914 26.3661L42.535 38.7851L34.1777 27.8292L28.8719 29.0083L31.8248 46.9268L34.6891 46.3664L32.6006 34.3068L32.8422 34.1998L41.2348 44.9613L45.8004 43.983L44.122 25.9904L40.9914 26.3661Z" fill="white"></path> <path fill-rule="evenodd" clip-rule="evenodd" d="M18.7051 13.1709L22.4509 11.6045L32.5305 23.7273L27.9674 25.7023L25.107 22.0246L21.0207 23.4548L20.8844 27.8817L18.5008 28.8352L18.7051 13.1709ZM20.9526 16.7805V21.0711L23.6087 19.9814L20.9526 16.7805Z" fill="#E2027E"></path> <path fill-rule="evenodd" clip-rule="evenodd" d="M22.4912 11.4399L32.7515 23.78L27.9247 25.8692L25.0596 22.1855L21.1539 23.5525L21.0179 27.975L18.3619 29.0374L18.57 13.0797L22.4912 11.4399ZM18.8401 13.2621L18.6396 28.6329L20.751 27.7883L20.8874 23.3572L25.1544 21.8637L28.0102 25.5354L32.3095 23.6745L22.4105 11.769L18.8401 13.2621ZM20.8163 16.403L23.8319 20.0371L20.8163 21.2742V16.403ZM21.0888 17.1579V20.868L23.3855 19.9258L21.0888 17.1579Z" fill="white"></path> <path fill-rule="evenodd" clip-rule="evenodd" d="M50.4103 6.65146L54.47 6.58821L59.7046 22.0246L55.0053 22.0246L53.507 17.8701L48.9439 17.8701L47.5137 22.0246L44.9464 22.0246L50.4103 6.65146ZM51.1914 11.1958L49.8974 15.0097L52.7578 15.0778L51.1914 11.1958Z" fill="#E2027E"></path> <path fill-rule="evenodd" clip-rule="evenodd" d="M54.5671 6.45047L59.8946 22.1608L54.9096 22.1608L53.4113 18.0064L49.0411 18.0064L47.6108 22.1608L44.7534 22.1608L50.3137 6.51674L54.5671 6.45047ZM50.507 6.78619L45.1393 21.8884L47.4165 21.8884L48.8467 17.7339L53.6026 17.7339L55.101 21.8884L59.5145 21.8884L54.3729 6.72595L50.507 6.78619ZM51.1803 10.8044L52.9616 15.2189L49.7088 15.1415L51.1803 10.8044ZM51.2024 11.5872L50.0859 14.878L52.554 14.9367L51.2024 11.5872Z" fill="white"></path> <path fill-rule="evenodd" clip-rule="evenodd" d="M30.7597 9.22077L33.4159 23.7954L38.4557 23.0462C41.5204 22.6376 44.9666 20.2539 43.7679 14.2606C42.5692 8.2673 37.6384 7.85866 34.9142 8.4035L30.7597 9.22077ZM34.9547 10.9772L36.5057 20.8649C36.5293 21.0156 36.672 21.1175 36.8222 21.091L37.7065 20.9349C38.7962 20.6625 40.415 19.4671 39.7497 15.0097C39.3907 12.6049 38.1151 10.4467 35.1704 10.6679C35.0272 10.6965 34.932 10.8329 34.9547 10.9772Z" fill="#E2027E"></path> <path fill-rule="evenodd" clip-rule="evenodd" d="M39.8567 9.00423C38.1678 8.23652 36.2852 8.26819 34.9408 8.53706L34.9404 8.53714L30.9178 9.32848L33.5262 23.6412L38.4366 22.9113L38.4376 22.9112C39.9446 22.7102 41.5359 22.0248 42.6033 20.6636C43.6681 19.3058 44.2278 17.2547 43.6343 14.2873C43.043 11.3309 41.5374 9.76819 39.8567 9.00423ZM39.9694 8.75623C41.7349 9.5587 43.2941 11.197 43.9014 14.2339C44.5066 17.2598 43.9426 19.3972 42.8177 20.8317C41.6957 22.2625 40.0321 22.9732 38.4746 23.1811C38.4743 23.1811 38.474 23.1812 38.4736 23.1812L33.3054 23.9495L30.6016 9.11303L34.8874 8.26992C34.8875 8.26991 34.8876 8.2699 34.8876 8.26988C36.2675 7.99394 38.2124 7.95755 39.9694 8.75623ZM35.1902 10.8029C35.1225 10.8201 35.0782 10.8863 35.0892 10.9561L36.6402 20.8438C36.652 20.9191 36.7234 20.9701 36.7984 20.9568L37.678 20.8016C38.1898 20.6726 38.8291 20.3271 39.265 19.4794C39.7048 18.6242 39.9453 17.2432 39.6149 15.0298C39.4376 13.8419 39.0357 12.7304 38.3285 11.9452C37.628 11.1675 36.6179 10.6982 35.1902 10.8029ZM38.5309 11.7629C39.2873 12.6027 39.7027 13.7727 39.8843 14.9896C40.2193 17.2336 39.983 18.6789 39.5073 19.604C39.0291 20.5339 38.3166 20.9228 37.7395 21.0671L37.7349 21.0682L36.8458 21.2251C36.6205 21.2649 36.4065 21.112 36.3711 20.886L34.8201 10.9983C34.7861 10.7819 34.9288 10.5772 35.1436 10.5343L35.1518 10.5326L35.1601 10.532C36.6721 10.4184 37.7692 10.9172 38.5309 11.7629Z" fill="white"></path> <path fill-rule="evenodd" clip-rule="evenodd" d="M6.85467 34.3753L0.180321 20.4137L6.10551 17.4171C7.83085 16.7133 11.5403 16.0005 12.5755 18.7792C13.6107 21.5579 12.4393 22.7293 11.6221 23.4784C13.0523 23.0017 15.2317 23.7509 16.117 25.2492C17.4247 27.9734 15.2998 30.289 13.8695 30.9701L6.85467 34.3753ZM6.92277 24.5L4.87961 20.5499C5.65147 19.778 7.80989 19.324 8.69352 20.8904C9.89218 23.0153 8.55731 23.7509 6.92277 24.5ZM7.67193 26.2708C8.60271 25.6578 10.7503 24.895 11.8945 26.7475C13.3247 29.0631 11.0091 30.0166 9.85131 30.4933L7.67193 26.2708Z" fill="#E2027E"></path> <path fill-rule="evenodd" clip-rule="evenodd" d="M9.60802 16.6563C10.9115 16.7394 12.16 17.2737 12.7032 18.7316C13.2292 20.1436 13.2007 21.1651 12.9216 21.9363C12.721 22.4904 12.3944 22.9047 12.0739 23.2337C12.7201 23.1406 13.4461 23.2406 14.122 23.4958C14.9782 23.819 15.7724 24.3982 16.2343 25.1799L16.2373 25.185L16.2398 25.1903C16.9157 26.5982 16.7035 27.9046 16.1396 28.9409C15.5789 29.9716 14.6684 30.7404 13.9285 31.0929C13.9284 31.0929 13.9283 31.093 13.9281 31.093L6.7909 34.5577L0 20.3523L6.04898 17.293L6.05408 17.2909C6.92884 16.9341 8.30869 16.5734 9.60802 16.6563ZM6.16206 17.5411L0.360686 20.4751L6.91848 34.193L13.8101 30.8475L13.811 30.8471C14.5013 30.5184 15.3681 29.789 15.9003 28.8107C16.4289 27.8392 16.6255 26.6276 15.9968 25.3135C15.5729 24.5993 14.8363 24.0566 14.0258 23.7506C13.2124 23.4435 12.3431 23.3817 11.6652 23.6077L11.53 23.378C11.9373 23.0048 12.412 22.5437 12.6654 21.8435C12.9175 21.147 12.9571 20.1935 12.4479 18.8267C11.9559 17.506 10.8321 17.0073 9.59067 16.9281C8.3476 16.8488 7.01288 17.1949 6.16206 17.5411ZM6.74208 19.7071C7.5244 19.6923 8.33945 19.9855 8.81218 20.8235C9.11815 21.3659 9.26925 21.8313 9.28846 22.2391C9.30784 22.6505 9.19252 22.995 8.98143 23.2903C8.77255 23.5826 8.47303 23.8225 8.12914 24.0347C7.78503 24.2471 7.38832 24.4365 6.97955 24.6239L6.86148 24.678L4.71288 20.524L4.78331 20.4536C5.1982 20.0387 5.96648 19.7219 6.74208 19.7071ZM5.04802 20.579L6.984 24.3219C7.34824 24.1533 7.68945 23.9859 7.98607 23.8029C8.31472 23.6001 8.58048 23.3828 8.7598 23.1319C8.93691 22.8841 9.03272 22.5995 9.01634 22.2519C8.9998 21.9008 8.86826 21.4774 8.5749 20.9574C8.164 20.229 7.45803 19.966 6.74726 19.9795C6.07536 19.9923 5.42155 20.2528 5.04802 20.579ZM9.6971 25.4485C10.5336 25.411 11.4079 25.7004 12.0104 26.6759C12.3786 27.2721 12.5142 27.7946 12.4772 28.2536C12.4401 28.7135 12.2312 29.0922 11.9433 29.4026C11.378 30.012 10.4873 30.3788 9.91402 30.6148L9.78762 30.6669L7.49473 26.2244L7.59704 26.157C8.0764 25.8414 8.86951 25.4857 9.6971 25.4485ZM7.85018 26.3191L9.915 30.3197C10.4907 30.081 11.2561 29.7429 11.7436 29.2174C12.0005 28.9404 12.1746 28.6167 12.2057 28.2317C12.2368 27.8458 12.1255 27.3807 11.7786 26.8191C11.237 25.9421 10.4654 25.6867 9.70932 25.7207C9.00012 25.7525 8.30716 26.0404 7.85018 26.3191Z" fill="white"></path> <path fill-rule="evenodd" clip-rule="evenodd" d="M11.3652 56.1502L3.38123 39.8001L9.8624 36.3162C11.7214 35.427 15.7504 34.4525 16.9948 37.6681C18.2392 40.8836 17.005 42.2997 16.1411 43.2079C17.6864 42.5957 20.1006 43.3912 21.1295 45.1128C23.0637 49.1306 20.4386 51.0463 18.9015 51.8978L11.3652 56.1502ZM10.9409 44.1589L8.82968 40.0045C9.8624 39.2553 11.6901 38.728 12.5755 40.2769C13.9723 42.7205 12.6988 43.2199 10.9409 44.1589ZM12.1669 46.6107C13.1603 45.8578 15.4666 45.1387 16.5709 47.0266C18.1601 49.7436 15.6616 50.6399 14.4143 51.2419L12.1669 46.6107Z" fill="#E2027E"></path> <path fill-rule="evenodd" clip-rule="evenodd" d="M15.6867 35.8582C16.2956 36.2214 16.8003 36.7878 17.122 37.6189C17.7523 39.2479 17.7608 40.4374 17.4891 41.3424C17.2846 42.0238 16.9241 42.5333 16.573 42.9383C17.2882 42.7899 18.1076 42.877 18.8758 43.1572C19.8248 43.5034 20.7132 44.1504 21.2466 45.0429L21.2497 45.0481L21.2524 45.0537C22.2357 47.0963 22.0677 48.6271 21.4363 49.759C20.8107 50.8806 19.7425 51.5877 18.9682 52.0167C18.968 52.0168 18.9678 52.0169 18.9676 52.017L11.3063 56.3399L3.20148 39.7422L9.80086 36.1947L9.80375 36.1933C10.7455 35.7428 12.2397 35.2685 13.6638 35.3167C14.3773 35.3408 15.0799 35.4963 15.6867 35.8582ZM9.92419 36.4377C10.8416 35.9994 12.2898 35.5428 13.6546 35.589C14.3363 35.612 14.9905 35.7602 15.5472 36.0922C16.1018 36.423 16.5674 36.9406 16.8679 37.7172C17.4819 39.3038 17.4785 40.4301 17.2282 41.2641C16.9771 42.1006 16.4727 42.6619 16.0426 43.1141L16.1914 43.3346C16.9251 43.0439 17.8793 43.0837 18.7824 43.4131C19.6822 43.7413 20.5137 44.3509 21.0096 45.1774C21.9574 47.1497 21.7798 48.584 21.1984 49.6263C20.6109 50.6797 19.5983 51.3562 18.8356 51.7787L18.8347 51.7792L11.4243 55.9605L3.56124 39.8581L9.92419 36.4377ZM10.7517 39.1428C11.4913 39.109 12.222 39.3837 12.6939 40.2093C13.3994 41.4436 13.4627 42.2429 13.0548 42.8575C12.8573 43.1551 12.5578 43.3943 12.207 43.6151C11.929 43.7902 11.6092 43.9592 11.2713 44.1379C11.1837 44.1842 11.0949 44.2312 11.0053 44.279L10.8826 44.3445L8.65569 39.9625L8.74982 39.8942C9.28122 39.5087 10.0214 39.1762 10.7517 39.1428ZM9.00476 40.0481L10.9996 43.9734C11.0501 43.9467 11.0999 43.9203 11.1491 43.8943C11.4857 43.7163 11.7934 43.5536 12.0619 43.3846C12.4007 43.1713 12.6619 42.9568 12.8278 42.7068C13.1469 42.2261 13.1486 41.5538 12.4574 40.3445C12.0439 39.6211 11.418 39.3851 10.7642 39.415C10.142 39.4434 9.49622 39.7143 9.00476 40.0481ZM14.3213 45.6922C15.1997 45.6526 16.1058 45.9615 16.6886 46.9578C17.095 47.6526 17.2483 48.245 17.2158 48.7554C17.1833 49.2678 16.9645 49.6816 16.6571 50.0191C16.3516 50.3546 15.9572 50.6165 15.5666 50.8308C15.2883 50.9835 15.0047 51.1156 14.7541 51.2324C14.6546 51.2788 14.5603 51.3227 14.4737 51.3645L14.3513 51.4236L11.9956 46.5696L12.0847 46.5021C12.6002 46.1115 13.4511 45.7316 14.3213 45.6922ZM12.3393 46.6538L14.478 51.0608C14.5332 51.0348 14.5898 51.0084 14.6477 50.9814C14.8956 50.8659 15.1656 50.7401 15.4356 50.5919C15.8146 50.384 16.1794 50.1391 16.4557 49.8356C16.7303 49.5341 16.9161 49.1768 16.944 48.7381C16.972 48.2975 16.8416 47.759 16.4534 47.0953C15.9319 46.2038 15.1327 45.9283 14.3336 45.9644C13.575 45.9987 12.8238 46.3151 12.3393 46.6538Z" fill="white"></path> <path d="M19.7266 32.0361L23.6087 30.6059L29.5338 47.7685L25.9923 49.4711L19.7266 32.0361Z" fill="#E2027E"></path> <path fill-rule="evenodd" clip-rule="evenodd" d="M20.0744 32.1983L26.1465 49.0947L29.1972 47.6281L23.4419 30.9577L20.0744 32.1983ZM19.7266 32.0361L25.9923 49.4711L29.5338 47.7685L23.6087 30.6059L19.7266 32.0361Z" fill="white"></path> <path d="M62.4288 27.3368L59.7046 29.9929C59.5911 29.6524 59.296 28.9714 58.683 28.2903C58.0701 27.6093 57.1847 27.0644 55.7545 27.0644C54.3243 27.0644 52.0768 28.0179 52.0768 33.9431C52.0768 39.8683 55.1415 40.9579 56.708 40.9579C57.9611 40.9579 58.6376 40.0953 58.8192 39.6639V37.2802L54.1881 37.757V33.9431L63.3142 32.8534V42.7287H62.7012C61.9385 42.7287 62.0883 42.2519 61.1348 42.2519C60.1813 42.2519 60.3857 43.546 55.7545 43.546C50.306 43.546 47.2413 38.5061 47.2413 34.1474C47.2413 29.7886 50.2379 23.8634 55.7545 23.8634C60.1677 23.8634 62.0429 26.179 62.4288 27.3368Z" fill="#E2027E"></path> <path fill-rule="evenodd" clip-rule="evenodd" d="M49.3181 27.292C50.7753 25.2398 52.9412 23.7272 55.7545 23.7272C60.2196 23.7272 62.1515 26.0742 62.558 27.2938L62.585 27.3748L59.6441 30.2422L59.5754 30.036C59.4664 29.7091 59.1795 29.0456 58.5818 28.3814C57.9925 27.7267 57.143 27.2006 55.7545 27.2006C55.0724 27.2006 54.1975 27.426 53.4879 28.364C52.773 29.309 52.213 30.9939 52.213 33.9431C52.213 36.8829 52.973 38.5985 53.9037 39.5787C54.8349 40.5593 55.954 40.8217 56.7079 40.8217C57.8675 40.8217 58.501 40.0398 58.683 39.6356V37.4312L54.0518 37.9079V33.8222L63.4504 32.6999V42.8649H62.7012C62.4953 42.8649 62.3436 42.8325 62.2167 42.7801C62.1069 42.7347 62.0194 42.6752 61.9423 42.6228C61.9325 42.6162 61.9229 42.6097 61.9135 42.6033C61.828 42.5458 61.7454 42.4943 61.6308 42.4554C61.5158 42.4165 61.3617 42.3882 61.1348 42.3882C60.9344 42.3882 60.7949 42.4534 60.6172 42.5685C60.5743 42.5962 60.5289 42.6272 60.4799 42.6607C60.3259 42.7658 60.1369 42.8947 59.8847 43.0208C59.2118 43.3572 58.0817 43.6822 55.7545 43.6822C50.2043 43.6822 47.1051 38.5518 47.1051 34.1474C47.1051 31.9406 47.8625 29.3419 49.3181 27.292ZM49.5402 27.4497C48.1183 29.4522 47.3775 31.9954 47.3775 34.1474C47.3775 38.4605 50.4078 43.4097 55.7545 43.4097C58.0584 43.4097 59.1418 43.0877 59.7629 42.7771C59.9969 42.6601 60.1647 42.5457 60.3164 42.4422C60.3685 42.4067 60.4187 42.3724 60.4691 42.3398C60.666 42.2123 60.8585 42.1157 61.1348 42.1157C61.3847 42.1157 61.5694 42.147 61.7182 42.1974C61.8675 42.248 61.974 42.3157 62.0656 42.3773C62.0757 42.3841 62.0856 42.3908 62.0952 42.3973C62.1741 42.4507 62.2383 42.4942 62.3208 42.5283C62.4101 42.5652 62.5257 42.5925 62.7012 42.5925H63.178V33.0068L54.3242 34.064V37.606L58.9554 37.1293V39.6914L58.9447 39.7168C58.7483 40.1833 58.0308 41.0942 56.7079 41.0942C55.8955 41.0942 54.699 40.8118 53.7062 39.7662C52.7129 38.7202 51.9406 36.9284 51.9406 33.9431C51.9406 30.9671 52.5043 29.2126 53.2707 28.1996C54.0424 27.1795 55.0063 26.9282 55.7545 26.9282C57.2264 26.9282 58.1476 27.4918 58.7842 28.1992C59.3091 28.7823 59.6072 29.366 59.7599 29.7488L62.2712 27.3002C61.8468 26.1771 60.0127 23.9997 55.7545 23.9997C53.0512 23.9997 50.9604 25.4497 49.5402 27.4497Z" fill="white"></path> <path d="M74.9603 31.3551C74.9603 33.0101 73.6186 34.3517 71.9636 34.3517C70.3086 34.3517 68.967 33.0101 68.967 31.3551C68.967 29.7001 70.3086 28.3584 71.9636 28.3584C73.6186 28.3584 74.9603 29.7001 74.9603 31.3551Z" fill="#E2027E"></path> <path fill-rule="evenodd" clip-rule="evenodd" d="M71.9636 34.0793C73.4682 34.0793 74.6878 32.8596 74.6878 31.3551C74.6878 29.8505 73.4682 28.6309 71.9636 28.6309C70.4591 28.6309 69.2394 29.8505 69.2394 31.3551C69.2394 32.8596 70.4591 34.0793 71.9636 34.0793ZM71.9636 34.3517C73.6186 34.3517 74.9603 33.0101 74.9603 31.3551C74.9603 29.7001 73.6186 28.3584 71.9636 28.3584C70.3086 28.3584 68.967 29.7001 68.967 31.3551C68.967 33.0101 70.3086 34.3517 71.9636 34.3517Z" fill="white"></path> <path d="M85.2617 4.12026C86.4721 1.7487 89.5074 1.0071 91.6751 2.55328L93.1619 3.61381C95.337 5.16528 95.6171 8.2906 93.7526 10.2042L77.7859 26.5911C77.1162 27.2785 76.0276 27.3274 75.2989 26.7028C74.6608 26.1558 74.4803 25.2429 74.8624 24.4943L85.2617 4.12026Z" fill="#E2027E"></path> <path fill-rule="evenodd" clip-rule="evenodd" d="M93.0037 3.83559L91.5169 2.77506C89.4847 1.32552 86.6391 2.02077 85.5043 4.2441L75.1051 24.6182C74.7802 25.2547 74.9336 26.0309 75.4762 26.4959C76.0958 27.027 77.0213 26.9855 77.5908 26.401L93.5575 10.0141C95.3055 8.22009 95.0429 5.2901 93.0037 3.83559ZM91.6751 2.55328C89.5074 1.0071 86.4721 1.7487 85.2617 4.12026L74.8624 24.4943C74.4803 25.2429 74.6608 26.1558 75.2989 26.7028C76.0276 27.3274 77.1162 27.2785 77.7859 26.5911L93.7526 10.2042C95.6171 8.2906 95.337 5.16528 93.1619 3.61381L91.6751 2.55328Z" fill="white"></path> </svg> 